<?xml version="1.0" standalone="no"?>
<!DOCTYPE svg PUBLIC "-//W3C//DTD SVG 20010904//EN"
 "http://www.w3.org/TR/2001/REC-SVG-20010904/DTD/svg10.dtd">
<svg version="1.0" xmlns="http://www.w3.org/2000/svg"
 width="128.000000pt" height="128.000000pt" viewBox="0 0 128.000000 128.000000"
 preserveAspectRatio="xMidYMid meet">

<g transform="translate(0.000000,128.000000) scale(0.100000,-0.100000)"
fill="#C70000" stroke="none">
<path d="M353 981 c-113 -42 -207 -143 -233 -251 -19 -79 -9 -187 24 -254 52
-106 162 -187 274 -202 l52 -7 0 90 0 91 -32 6 c-117 23 -183 159 -129 264 23
46 46 67 94 87 102 42 215 -14 248 -125 l12 -40 90 0 89 0 -6 48 c-17 116
-103 229 -214 280 -77 35 -194 41 -269 13z"/>
<path d="M810 913 l0 -89 44 -12 c108 -29 163 -135 127 -245 -21 -63 -102
-117 -173 -117 -79 1 -163 70 -175 144 l-6 36 -93 0 -94 0 6 -42 c3 -24 21
-75 40 -115 39 -82 90 -132 174 -172 47 -22 68 -26 150 -26 84 1 102 4 154 29
224 109 280 392 115 580 -48 54 -143 104 -217 113 l-52 6 0 -90z"/>
</g>
</svg>
