<?xml version="1.0" encoding="utf-8"?>
<!-- Generator: Adobe Illustrator 24.1.0, SVG Export Plug-In . SVG Version: 6.00 Build 0)  -->
<svg version="1.1" id="Camada_1" xmlns="http://www.w3.org/2000/svg" xmlns:xlink="http://www.w3.org/1999/xlink" x="0px" y="0px"
	 viewBox="0 0 595.28 195.35" style="enable-background:new 0 0 595.28 195.35;" xml:space="preserve">
<style type="text/css">
	.st0{fill-rule:evenodd;clip-rule:evenodd;fill:#BE1D20;}
	.st1{fill-rule:evenodd;clip-rule:evenodd;fill:#878787;}
	.st2{fill:#878787;}
</style>
<g>
	<g>
		<path class="st0" d="M402.15,44.06v26.85c10.87-0.01,20.67,6.53,24.83,16.57s1.87,21.59-5.81,29.28
			c-7.68,7.69-19.23,9.99-29.28,5.84c-10.04-4.15-16.59-13.98-16.6-24.84h-26.85c0.01,21.71,13.1,41.27,33.16,49.56
			c20.06,8.29,43.14,3.69,58.48-11.67c15.34-15.36,19.91-38.44,11.6-58.49C443.36,57.11,423.86,44.05,402.15,44.06L402.15,44.06z
			 M352.93,151.46c-21.71,0.01-41.21-13.05-49.53-33.1c-8.32-20.05-3.74-43.13,11.6-58.49c15.34-15.36,38.42-19.96,58.48-11.67
			c20.06,8.3,33.15,27.85,33.16,49.56h-26.85c-0.01-10.87-6.56-20.69-16.6-24.85c-10.04-4.15-21.6-1.85-29.28,5.84
			c-7.68,7.69-9.97,19.25-5.8,29.28c4.16,10.04,13.96,16.58,24.83,16.57V151.46z"/>
		<path class="st1" d="M68.19,124.63c-0.17,0-0.34,0-0.51,0c-0.17,0-0.34-0.01-0.51-0.01l0,0c-0.17-0.01-0.34-0.01-0.51-0.02l0,0
			c-0.17-0.01-0.34-0.02-0.5-0.03h0c-0.17-0.01-0.33-0.03-0.5-0.04h0c-0.17-0.02-0.33-0.03-0.5-0.05h0
			c-0.17-0.02-0.33-0.04-0.5-0.06h0c-0.17-0.02-0.33-0.04-0.49-0.07h0c-0.16-0.02-0.33-0.05-0.49-0.08l0,0
			c-0.16-0.03-0.33-0.06-0.49-0.09h0c-0.16-0.03-0.32-0.06-0.49-0.1l0,0c-0.16-0.03-0.32-0.07-0.48-0.11h0
			c-0.16-0.04-0.32-0.07-0.48-0.11h0c-0.16-0.04-0.32-0.08-0.48-0.12h0c-0.16-0.04-0.32-0.09-0.47-0.13h0
			c-7.74-2.22-14.23-7.85-17.42-15.53c-4.17-10.04-1.88-21.6,5.81-29.28c5.16-5.17,12.06-7.9,19.09-7.88c0.16,0,0.33,0,0.49,0l0,0
			c0.16,0,0.33,0.01,0.49,0.01h0c0.16,0.01,0.33,0.01,0.49,0.02l0,0c0.16,0.01,0.33,0.02,0.49,0.03l0,0
			c0.16,0.01,0.33,0.03,0.49,0.04l0,0c0.16,0.02,0.33,0.03,0.49,0.05l0,0c0.16,0.02,0.33,0.04,0.49,0.06h0
			c0.16,0.02,0.32,0.04,0.49,0.07l0,0c0.16,0.02,0.33,0.05,0.49,0.08h0c0.16,0.03,0.32,0.06,0.49,0.09h0
			c0.16,0.03,0.32,0.06,0.48,0.1h0c0.16,0.03,0.32,0.07,0.48,0.11h0c0.16,0.04,0.32,0.08,0.48,0.11c1.29,0.32,2.57,0.74,3.83,1.26
			c10.04,4.15,16.59,13.98,16.6,24.85h0.01v53.7h26.85v-53.7c-0.01-8.82-2.18-17.28-6.09-24.78l0,0c-0.15-0.29-0.3-0.58-0.46-0.86
			l0,0c-0.16-0.29-0.31-0.57-0.47-0.85h0c-0.16-0.28-0.32-0.56-0.49-0.84v0c-0.17-0.28-0.33-0.56-0.51-0.83l0,0
			c-0.17-0.28-0.34-0.55-0.52-0.82l0,0c-0.18-0.27-0.35-0.55-0.53-0.81v0c-0.18-0.27-0.36-0.54-0.55-0.8h0
			c-0.18-0.27-0.37-0.53-0.56-0.79l0,0c-0.19-0.26-0.38-0.53-0.58-0.78v0c-0.2-0.26-0.39-0.52-0.59-0.77l0,0
			c-0.2-0.26-0.4-0.51-0.61-0.76v0c-0.21-0.25-0.41-0.5-0.62-0.75l0,0c-0.21-0.25-0.42-0.5-0.63-0.74l0,0
			c-0.21-0.25-0.43-0.49-0.65-0.73h0c-0.22-0.24-0.44-0.48-0.66-0.72l0,0c-0.22-0.24-0.45-0.47-0.67-0.71l0,0
			c-0.23-0.23-0.46-0.47-0.69-0.69l0,0c-4.86-4.82-10.69-8.76-17.27-11.48c-1.88-0.78-3.79-1.44-5.72-1.99
			c-0.32-0.09-0.64-0.18-0.96-0.27h0c-0.32-0.09-0.64-0.17-0.96-0.25h0c-0.32-0.08-0.64-0.16-0.97-0.23h0
			c-0.32-0.07-0.64-0.14-0.97-0.21l0,0c-0.32-0.07-0.65-0.13-0.97-0.19h0c-0.32-0.06-0.65-0.12-0.97-0.17l0,0
			c-0.32-0.05-0.65-0.11-0.97-0.16l0,0c-0.33-0.05-0.65-0.09-0.97-0.14c-16.3-2.15-33.01,3.28-44.99,15.28
			c-15.34,15.36-19.91,38.44-11.6,58.49c5.85,14.1,17.23,24.74,31.02,29.81l0,0c0.3,0.11,0.61,0.22,0.92,0.33l0,0
			c0.31,0.11,0.62,0.21,0.93,0.31l0,0c0.31,0.1,0.62,0.2,0.93,0.3l0,0c0.31,0.1,0.63,0.19,0.94,0.28l0,0
			c0.31,0.09,0.63,0.18,0.95,0.26l0,0c0.32,0.08,0.64,0.17,0.95,0.24l0,0c0.32,0.08,0.64,0.15,0.96,0.23l0,0
			c0.32,0.07,0.64,0.14,0.96,0.21h0c0.32,0.07,0.65,0.13,0.97,0.19h0c0.32,0.06,0.65,0.12,0.98,0.17h0
			c0.33,0.06,0.65,0.11,0.98,0.16h0c0.33,0.05,0.66,0.1,0.99,0.14h0c0.33,0.04,0.66,0.08,0.99,0.12h0c0.33,0.04,0.66,0.07,0.99,0.1
			l0,0c0.33,0.03,0.67,0.06,1,0.09l0,0c0.33,0.03,0.67,0.05,1,0.06h0c0.34,0.02,0.67,0.03,1.01,0.05l0,0
			c0.34,0.01,0.67,0.02,1.01,0.03v0c0.34,0.01,0.68,0.01,1.01,0.01v0v0h21.38v-26.85H68.19L68.19,124.63z M547.58,44.28
			C529,44.3,514.04,59.33,514.04,77.82c0,18.61,14.96,33.63,33.54,33.65c3.66,0,6.61,2.96,6.61,6.63c0,3.65-2.95,6.61-6.61,6.61
			h-28.83v26.97h28.83c18.58-0.01,33.54-15.04,33.54-33.54c0-18.61-14.96-33.63-33.54-33.65c-3.66,0-6.61-2.96-6.61-6.63
			c0-3.65,2.95-6.61,6.61-6.61h27.26V44.28H547.58L547.58,44.28z M513.61,124.94c-3.45,0-6.93-0.66-10.25-2.04
			c-10.04-4.15-16.59-13.98-16.6-24.84V71.21V44.3h0.01V17.26h-26.85V44.3h0v26.92h0l0,26.85c0.01,21.71,13.1,41.27,33.16,49.56
			c6.65,2.75,13.62,4.07,20.54,4.07V124.94L513.61,124.94z M266.96,30.69l26.86,0l0,26.85h-26.86v40.29h0.01
			c0.01,10.87,6.56,20.69,16.6,24.85c3.32,1.37,6.8,2.03,10.25,2.03v26.75c-6.92,0.01-13.89-1.32-20.54-4.07
			c-20.06-8.29-33.15-27.85-33.16-49.56h-0.02V44.12V17.26h26.85v0V30.69L266.96,30.69z M181.09,124.54
			c10.87,0.01,20.67-6.53,24.83-16.57c4.16-10.04,1.87-21.59-5.81-29.28c-7.68-7.69-19.23-9.99-29.28-5.84
			c-10.04,4.15-16.59,13.98-16.6,24.85h-0.01v53.72v26.86h-26.85V151.4V97.69h0.02c0.01-21.71,13.1-41.27,33.16-49.56
			c20.06-8.29,43.14-3.69,58.48,11.67c15.34,15.36,19.91,38.44,11.6,58.49c-8.32,20.05-27.83,33.11-49.53,33.1v0H159.7v-26.85
			H181.09z"/>
	</g>
	<path class="st2" d="M172.91,175.5c-0.86,0.73-1.69,1.25-2.49,1.55c-0.8,0.3-1.65,0.45-2.56,0.45c-1.51,0-2.66-0.37-3.47-1.1
		c-0.81-0.74-1.21-1.68-1.21-2.82c0-0.67,0.15-1.29,0.46-1.84c0.3-0.55,0.7-1,1.2-1.33c0.5-0.34,1.05-0.59,1.67-0.76
		c0.45-0.12,1.14-0.24,2.06-0.35c1.88-0.22,3.26-0.49,4.15-0.8c0.01-0.32,0.01-0.52,0.01-0.6c0-0.95-0.22-1.62-0.66-2
		c-0.59-0.53-1.48-0.79-2.64-0.79c-1.09,0-1.9,0.19-2.42,0.57c-0.52,0.38-0.9,1.06-1.15,2.04l-2.27-0.31
		c0.21-0.97,0.55-1.76,1.02-2.35c0.47-0.6,1.16-1.06,2.05-1.38c0.89-0.32,1.93-0.48,3.11-0.48c1.17,0,2.12,0.14,2.85,0.41
		c0.73,0.28,1.27,0.62,1.62,1.04c0.34,0.42,0.58,0.94,0.72,1.58c0.08,0.4,0.12,1.11,0.12,2.14v3.1c0,2.16,0.05,3.53,0.15,4.1
		c0.1,0.57,0.3,1.12,0.59,1.65h-2.43C173.14,176.71,172.98,176.15,172.91,175.5L172.91,175.5z M172.72,170.31
		c-0.85,0.35-2.11,0.64-3.79,0.88c-0.96,0.14-1.64,0.29-2.03,0.46c-0.4,0.17-0.71,0.42-0.92,0.76c-0.22,0.33-0.33,0.7-0.33,1.1
		c0,0.62,0.24,1.14,0.71,1.55c0.47,0.41,1.15,0.62,2.06,0.62c0.89,0,1.69-0.19,2.39-0.59c0.7-0.39,1.21-0.93,1.54-1.61
		c0.25-0.52,0.37-1.3,0.37-2.32V170.31z"/>
	<path class="st2" d="M185.09,173.1l2.3-0.36c0.13,0.92,0.49,1.63,1.08,2.12c0.59,0.49,1.41,0.74,2.47,0.74
		c1.07,0,1.86-0.22,2.38-0.65c0.51-0.44,0.77-0.95,0.77-1.53c0-0.53-0.23-0.94-0.69-1.24c-0.32-0.21-1.11-0.47-2.38-0.78
		c-1.7-0.43-2.89-0.8-3.54-1.12c-0.66-0.31-1.16-0.75-1.5-1.3c-0.34-0.56-0.51-1.17-0.51-1.84c0-0.61,0.14-1.18,0.42-1.7
		c0.28-0.52,0.66-0.96,1.14-1.3c0.36-0.26,0.85-0.49,1.48-0.68c0.63-0.19,1.3-0.28,2.01-0.28c1.08,0,2.02,0.16,2.83,0.47
		c0.82,0.31,1.41,0.73,1.8,1.26c0.39,0.53,0.65,1.24,0.8,2.12l-2.27,0.31c-0.11-0.71-0.41-1.26-0.9-1.65
		c-0.49-0.4-1.19-0.59-2.1-0.59c-1.07,0-1.83,0.18-2.28,0.53c-0.46,0.35-0.69,0.77-0.69,1.24c0,0.3,0.1,0.57,0.29,0.81
		c0.19,0.25,0.49,0.45,0.89,0.62c0.23,0.08,0.92,0.28,2.05,0.59c1.64,0.44,2.79,0.8,3.44,1.08c0.65,0.28,1.16,0.69,1.53,1.22
		c0.37,0.53,0.55,1.19,0.55,1.99c0,0.78-0.23,1.5-0.68,2.19c-0.45,0.68-1.11,1.21-1.96,1.59c-0.85,0.38-1.82,0.56-2.89,0.56
		c-1.78,0-3.14-0.37-4.08-1.11C185.94,175.65,185.35,174.55,185.09,173.1z"/>
	<path class="st2" d="M205.66,173.1l2.3-0.36c0.13,0.92,0.49,1.63,1.08,2.12c0.59,0.49,1.41,0.74,2.47,0.74
		c1.07,0,1.86-0.22,2.38-0.65c0.51-0.44,0.78-0.95,0.78-1.53c0-0.53-0.23-0.94-0.69-1.24c-0.32-0.21-1.11-0.47-2.38-0.78
		c-1.7-0.43-2.89-0.8-3.54-1.12c-0.66-0.31-1.16-0.75-1.5-1.3c-0.34-0.56-0.51-1.17-0.51-1.84c0-0.61,0.14-1.18,0.42-1.7
		c0.28-0.52,0.66-0.96,1.14-1.3c0.36-0.26,0.85-0.49,1.48-0.68c0.63-0.19,1.3-0.28,2.01-0.28c1.08,0,2.02,0.16,2.83,0.47
		c0.82,0.31,1.41,0.73,1.8,1.26c0.39,0.53,0.65,1.24,0.8,2.12l-2.27,0.31c-0.11-0.71-0.41-1.26-0.9-1.65
		c-0.49-0.4-1.19-0.59-2.1-0.59c-1.07,0-1.83,0.18-2.28,0.53c-0.46,0.35-0.69,0.77-0.69,1.24c0,0.3,0.1,0.57,0.29,0.81
		c0.19,0.25,0.49,0.45,0.89,0.62c0.23,0.08,0.92,0.28,2.05,0.59c1.64,0.44,2.79,0.8,3.44,1.08c0.65,0.28,1.16,0.69,1.53,1.22
		c0.37,0.53,0.55,1.19,0.55,1.99c0,0.78-0.23,1.5-0.68,2.19c-0.45,0.68-1.11,1.21-1.96,1.59c-0.85,0.38-1.82,0.56-2.89,0.56
		c-1.78,0-3.14-0.37-4.08-1.11C206.51,175.65,205.91,174.55,205.66,173.1z"/>
	<path class="st2" d="M236.54,172.78l2.4,0.3c-0.38,1.41-1.08,2.49-2.1,3.27c-1.03,0.77-2.34,1.16-3.93,1.16
		c-2.01,0-3.6-0.62-4.77-1.85c-1.18-1.23-1.76-2.97-1.76-5.2c0-2.31,0.59-4.1,1.78-5.37c1.19-1.27,2.73-1.91,4.62-1.91
		c1.83,0,3.33,0.63,4.49,1.87c1.16,1.25,1.75,3.01,1.75,5.27c0,0.14,0,0.35-0.01,0.62h-10.23c0.08,1.51,0.51,2.66,1.28,3.46
		c0.77,0.8,1.72,1.2,2.86,1.2c0.85,0,1.58-0.22,2.18-0.67C235.71,174.47,236.19,173.76,236.54,172.78L236.54,172.78z M228.91,169.02
		h7.66c-0.1-1.15-0.4-2.02-0.88-2.59c-0.74-0.89-1.7-1.34-2.88-1.34c-1.07,0-1.97,0.36-2.69,1.07
		C229.39,166.87,228.99,167.82,228.91,169.02z"/>
	<path class="st2" d="M248.28,173.1l2.3-0.36c0.13,0.92,0.49,1.63,1.08,2.12c0.59,0.49,1.41,0.74,2.47,0.74
		c1.07,0,1.86-0.22,2.38-0.65c0.52-0.44,0.78-0.95,0.78-1.53c0-0.53-0.23-0.94-0.69-1.24c-0.32-0.21-1.11-0.47-2.38-0.78
		c-1.7-0.43-2.89-0.8-3.54-1.12c-0.66-0.31-1.16-0.75-1.5-1.3c-0.34-0.56-0.51-1.17-0.51-1.84c0-0.61,0.14-1.18,0.42-1.7
		c0.28-0.52,0.66-0.96,1.14-1.3c0.36-0.26,0.85-0.49,1.48-0.68c0.63-0.19,1.3-0.28,2.01-0.28c1.08,0,2.02,0.16,2.83,0.47
		c0.82,0.31,1.41,0.73,1.8,1.26c0.39,0.53,0.65,1.24,0.8,2.12l-2.27,0.31c-0.11-0.71-0.41-1.26-0.9-1.65
		c-0.49-0.4-1.19-0.59-2.1-0.59c-1.07,0-1.83,0.18-2.28,0.53c-0.46,0.35-0.69,0.77-0.69,1.24c0,0.3,0.1,0.57,0.29,0.81
		c0.19,0.25,0.48,0.45,0.89,0.62c0.23,0.08,0.92,0.28,2.05,0.59c1.64,0.44,2.79,0.8,3.44,1.08c0.65,0.28,1.16,0.69,1.53,1.22
		c0.37,0.53,0.56,1.19,0.56,1.99c0,0.78-0.23,1.5-0.68,2.19c-0.45,0.68-1.11,1.21-1.96,1.59c-0.85,0.38-1.82,0.56-2.89,0.56
		c-1.78,0-3.14-0.37-4.08-1.11C249.13,175.65,248.54,174.55,248.28,173.1z"/>
	<path class="st2" d="M268.85,173.1l2.3-0.36c0.13,0.92,0.49,1.63,1.08,2.12c0.59,0.49,1.41,0.74,2.47,0.74
		c1.07,0,1.86-0.22,2.38-0.65c0.52-0.44,0.78-0.95,0.78-1.53c0-0.53-0.23-0.94-0.69-1.24c-0.32-0.21-1.11-0.47-2.38-0.78
		c-1.7-0.43-2.89-0.8-3.54-1.12c-0.66-0.31-1.16-0.75-1.5-1.3c-0.34-0.56-0.51-1.17-0.51-1.84c0-0.61,0.14-1.18,0.42-1.7
		c0.28-0.52,0.66-0.96,1.14-1.3c0.36-0.26,0.85-0.49,1.48-0.68c0.63-0.19,1.3-0.28,2.01-0.28c1.08,0,2.02,0.16,2.83,0.47
		c0.82,0.31,1.41,0.73,1.8,1.26c0.39,0.53,0.65,1.24,0.8,2.12l-2.27,0.31c-0.11-0.71-0.41-1.26-0.9-1.65
		c-0.49-0.4-1.19-0.59-2.1-0.59c-1.07,0-1.83,0.18-2.28,0.53c-0.46,0.35-0.69,0.77-0.69,1.24c0,0.3,0.1,0.57,0.29,0.81
		c0.19,0.25,0.48,0.45,0.89,0.62c0.23,0.08,0.92,0.28,2.05,0.59c1.64,0.44,2.79,0.8,3.44,1.08c0.65,0.28,1.16,0.69,1.53,1.22
		c0.37,0.53,0.55,1.19,0.55,1.99c0,0.78-0.23,1.5-0.68,2.19c-0.45,0.68-1.11,1.21-1.96,1.59c-0.85,0.38-1.82,0.56-2.89,0.56
		c-1.78,0-3.14-0.37-4.08-1.11C269.7,175.65,269.11,174.55,268.85,173.1z"/>
	<path class="st2" d="M289.48,170.33c0-2.54,0.71-4.42,2.12-5.64c1.18-1.01,2.61-1.52,4.31-1.52c1.89,0,3.43,0.62,4.62,1.86
		c1.2,1.23,1.79,2.94,1.79,5.12c0,1.77-0.26,3.16-0.79,4.16c-0.53,1.01-1.3,1.8-2.31,2.36c-1.01,0.56-2.12,0.84-3.31,0.84
		c-1.92,0-3.47-0.61-4.65-1.85C290.07,174.42,289.48,172.65,289.48,170.33L289.48,170.33z M291.87,170.33
		c0,1.76,0.38,3.07,1.15,3.95c0.77,0.88,1.73,1.31,2.89,1.31c1.15,0,2.12-0.44,2.88-1.32c0.76-0.88,1.15-2.22,1.15-4.01
		c0-1.7-0.38-2.98-1.15-3.86s-1.73-1.31-2.87-1.31c-1.16,0-2.12,0.44-2.89,1.31C292.25,167.27,291.87,168.58,291.87,170.33z"/>
	<path class="st2" d="M312.38,177.19v-13.71h2.09v2.08c0.53-0.97,1.03-1.61,1.48-1.92c0.45-0.31,0.95-0.47,1.49-0.47
		c0.78,0,1.58,0.25,2.39,0.75l-0.8,2.16c-0.56-0.34-1.13-0.51-1.7-0.51c-0.51,0-0.97,0.15-1.37,0.46c-0.41,0.31-0.69,0.73-0.86,1.27
		c-0.26,0.82-0.39,1.73-0.39,2.71v7.18H312.38z"/>
	<path class="st2" d="M328.57,160.94v-2.67h2.33v2.67H328.57L328.57,160.94z M328.57,177.19v-13.71h2.33v13.71H328.57z"/>
	<path class="st2" d="M350.72,175.5c-0.86,0.73-1.69,1.25-2.49,1.55c-0.8,0.3-1.65,0.45-2.57,0.45c-1.51,0-2.66-0.37-3.47-1.1
		c-0.81-0.74-1.21-1.68-1.21-2.82c0-0.67,0.15-1.29,0.46-1.84c0.3-0.55,0.71-1,1.2-1.33c0.5-0.34,1.05-0.59,1.67-0.76
		c0.45-0.12,1.14-0.24,2.06-0.35c1.88-0.22,3.26-0.49,4.15-0.8c0.01-0.32,0.01-0.52,0.01-0.6c0-0.95-0.22-1.62-0.66-2
		c-0.59-0.53-1.48-0.79-2.64-0.79c-1.09,0-1.9,0.19-2.42,0.57c-0.52,0.38-0.9,1.06-1.15,2.04l-2.27-0.31
		c0.21-0.97,0.55-1.76,1.02-2.35c0.47-0.6,1.16-1.06,2.05-1.38c0.89-0.32,1.93-0.48,3.11-0.48c1.17,0,2.12,0.14,2.85,0.41
		c0.73,0.28,1.27,0.62,1.62,1.04c0.34,0.42,0.58,0.94,0.72,1.58c0.08,0.4,0.11,1.11,0.11,2.14v3.1c0,2.16,0.05,3.53,0.15,4.1
		c0.1,0.57,0.3,1.12,0.59,1.65h-2.43C350.95,176.71,350.79,176.15,350.72,175.5L350.72,175.5z M350.53,170.31
		c-0.85,0.35-2.11,0.64-3.79,0.88c-0.96,0.14-1.64,0.29-2.03,0.46c-0.4,0.17-0.71,0.42-0.92,0.76c-0.22,0.33-0.33,0.7-0.33,1.1
		c0,0.62,0.24,1.14,0.71,1.55c0.47,0.41,1.15,0.62,2.06,0.62c0.89,0,1.69-0.19,2.39-0.59c0.7-0.39,1.21-0.93,1.54-1.61
		c0.25-0.52,0.37-1.3,0.37-2.32V170.31z"/>
	<path class="st2" d="M387.91,172.78l2.4,0.3c-0.38,1.41-1.08,2.49-2.1,3.27c-1.03,0.77-2.34,1.16-3.93,1.16
		c-2.01,0-3.6-0.62-4.77-1.85c-1.18-1.23-1.76-2.97-1.76-5.2c0-2.31,0.59-4.1,1.78-5.37c1.19-1.27,2.73-1.91,4.62-1.91
		c1.83,0,3.33,0.63,4.49,1.87c1.16,1.25,1.75,3.01,1.75,5.27c0,0.14,0,0.35-0.01,0.62h-10.23c0.08,1.51,0.51,2.66,1.28,3.46
		c0.77,0.8,1.72,1.2,2.86,1.2c0.85,0,1.58-0.22,2.18-0.67C387.08,174.47,387.56,173.76,387.91,172.78L387.91,172.78z M380.28,169.02
		h7.66c-0.1-1.15-0.4-2.02-0.88-2.59c-0.74-0.89-1.7-1.34-2.88-1.34c-1.07,0-1.97,0.36-2.69,1.07
		C380.76,166.87,380.36,167.82,380.28,169.02z"/>
	<path class="st2" d="M414.34,173.1l2.3-0.36c0.13,0.92,0.49,1.63,1.08,2.12c0.59,0.49,1.41,0.74,2.47,0.74
		c1.07,0,1.86-0.22,2.38-0.65c0.51-0.44,0.78-0.95,0.78-1.53c0-0.53-0.23-0.94-0.69-1.24c-0.32-0.21-1.11-0.47-2.38-0.78
		c-1.7-0.43-2.89-0.8-3.54-1.12c-0.66-0.31-1.16-0.75-1.5-1.3c-0.34-0.56-0.51-1.17-0.51-1.84c0-0.61,0.14-1.18,0.42-1.7
		c0.28-0.52,0.66-0.96,1.14-1.3c0.36-0.26,0.85-0.49,1.48-0.68c0.63-0.19,1.3-0.28,2.01-0.28c1.08,0,2.02,0.16,2.83,0.47
		c0.82,0.31,1.41,0.73,1.8,1.26c0.39,0.53,0.65,1.24,0.8,2.12l-2.27,0.31c-0.11-0.71-0.41-1.26-0.9-1.65
		c-0.49-0.4-1.19-0.59-2.1-0.59c-1.07,0-1.83,0.18-2.28,0.53c-0.46,0.35-0.69,0.77-0.69,1.24c0,0.3,0.1,0.57,0.29,0.81
		c0.19,0.25,0.49,0.45,0.89,0.62c0.23,0.08,0.92,0.28,2.05,0.59c1.64,0.44,2.79,0.8,3.44,1.08c0.65,0.28,1.16,0.69,1.53,1.22
		c0.37,0.53,0.55,1.19,0.55,1.99c0,0.78-0.23,1.5-0.68,2.19c-0.45,0.68-1.11,1.21-1.96,1.59c-0.85,0.38-1.82,0.56-2.89,0.56
		c-1.78,0-3.14-0.37-4.08-1.11C415.19,175.65,414.6,174.55,414.34,173.1z"/>
	<path class="st2" d="M435.85,160.94v-2.67h2.33v2.67H435.85L435.85,160.94z M435.85,177.19v-13.71h2.33v13.71H435.85z"/>
	<path class="st2" d="M448.13,173.1l2.3-0.36c0.13,0.92,0.49,1.63,1.08,2.12c0.59,0.49,1.41,0.74,2.47,0.74
		c1.07,0,1.86-0.22,2.38-0.65c0.52-0.44,0.78-0.95,0.78-1.53c0-0.53-0.23-0.94-0.69-1.24c-0.32-0.21-1.11-0.47-2.38-0.78
		c-1.7-0.43-2.89-0.8-3.54-1.12c-0.66-0.31-1.16-0.75-1.5-1.3c-0.34-0.56-0.51-1.17-0.51-1.84c0-0.61,0.14-1.18,0.42-1.7
		c0.28-0.52,0.66-0.96,1.14-1.3c0.36-0.26,0.85-0.49,1.48-0.68c0.63-0.19,1.3-0.28,2.01-0.28c1.08,0,2.02,0.16,2.83,0.47
		c0.81,0.31,1.41,0.73,1.8,1.26c0.39,0.53,0.65,1.24,0.8,2.12l-2.27,0.31c-0.11-0.71-0.41-1.26-0.9-1.65
		c-0.49-0.4-1.19-0.59-2.1-0.59c-1.07,0-1.83,0.18-2.28,0.53c-0.46,0.35-0.69,0.77-0.69,1.24c0,0.3,0.1,0.57,0.29,0.81
		c0.19,0.25,0.48,0.45,0.89,0.62c0.23,0.08,0.92,0.28,2.05,0.59c1.64,0.44,2.79,0.8,3.44,1.08c0.65,0.28,1.16,0.69,1.53,1.22
		c0.37,0.53,0.56,1.19,0.56,1.99c0,0.78-0.23,1.5-0.68,2.19c-0.45,0.68-1.11,1.21-1.96,1.59c-0.85,0.38-1.82,0.56-2.89,0.56
		c-1.78,0-3.14-0.37-4.08-1.11C448.99,175.65,448.39,174.55,448.13,173.1z"/>
	<path class="st2" d="M474.71,175.11l0.34,2.05c-0.65,0.14-1.24,0.21-1.75,0.21c-0.85,0-1.5-0.13-1.97-0.4
		c-0.46-0.26-0.79-0.62-0.98-1.05c-0.19-0.43-0.29-1.35-0.29-2.74v-7.89h-1.71v-1.81h1.71v-3.4l2.31-1.39v4.79h2.34v1.81h-2.34v8.02
		c0,0.67,0.04,1.09,0.12,1.28c0.08,0.19,0.22,0.34,0.4,0.45c0.18,0.11,0.45,0.17,0.79,0.17
		C473.94,175.2,474.28,175.17,474.71,175.11z"/>
	<path class="st2" d="M493.71,172.78l2.4,0.3c-0.38,1.41-1.08,2.49-2.1,3.27c-1.03,0.77-2.34,1.16-3.93,1.16
		c-2.01,0-3.6-0.62-4.77-1.85c-1.18-1.23-1.76-2.97-1.76-5.2c0-2.31,0.59-4.1,1.78-5.37c1.19-1.27,2.73-1.91,4.62-1.91
		c1.83,0,3.33,0.63,4.49,1.87c1.16,1.25,1.75,3.01,1.75,5.27c0,0.14,0,0.35-0.01,0.62h-10.23c0.08,1.51,0.51,2.66,1.28,3.46
		c0.77,0.8,1.72,1.2,2.87,1.2c0.85,0,1.58-0.22,2.18-0.67C492.88,174.47,493.36,173.76,493.71,172.78L493.71,172.78z M486.08,169.02
		h7.66c-0.1-1.15-0.4-2.02-0.88-2.59c-0.74-0.89-1.7-1.34-2.88-1.34c-1.07,0-1.97,0.36-2.69,1.07
		C486.56,166.87,486.16,167.82,486.08,169.02z"/>
	<path class="st2" d="M506.38,177.19v-13.71h2.08v1.92c0.43-0.67,1-1.21,1.72-1.62c0.71-0.41,1.53-0.62,2.44-0.62
		c1.01,0,1.85,0.21,2.49,0.63c0.65,0.42,1.11,1.01,1.38,1.77c1.09-1.6,2.5-2.4,4.24-2.4c1.36,0,2.41,0.38,3.14,1.13
		c0.73,0.75,1.1,1.91,1.1,3.48v9.41h-2.31v-8.64c0-0.93-0.08-1.6-0.22-2.01c-0.15-0.41-0.43-0.74-0.82-0.99
		c-0.4-0.25-0.86-0.37-1.4-0.37c-0.97,0-1.76,0.32-2.4,0.97c-0.64,0.64-0.96,1.67-0.96,3.08v7.97h-2.32v-8.91
		c0-1.04-0.19-1.81-0.57-2.33c-0.38-0.52-1-0.78-1.86-0.78c-0.65,0-1.26,0.17-1.81,0.52c-0.55,0.34-0.96,0.85-1.21,1.51
		c-0.25,0.67-0.37,1.62-0.37,2.87v7.11H506.38z"/>
	<path class="st2" d="M544.7,175.5c-0.86,0.73-1.69,1.25-2.49,1.55c-0.8,0.3-1.65,0.45-2.57,0.45c-1.51,0-2.66-0.37-3.47-1.1
		c-0.81-0.74-1.21-1.68-1.21-2.82c0-0.67,0.15-1.29,0.46-1.84c0.3-0.55,0.71-1,1.2-1.33c0.5-0.34,1.05-0.59,1.67-0.76
		c0.45-0.12,1.14-0.24,2.06-0.35c1.88-0.22,3.26-0.49,4.15-0.8c0.01-0.32,0.01-0.52,0.01-0.6c0-0.95-0.22-1.62-0.66-2
		c-0.59-0.53-1.48-0.79-2.64-0.79c-1.09,0-1.9,0.19-2.42,0.57c-0.52,0.38-0.9,1.06-1.15,2.04l-2.27-0.31
		c0.21-0.97,0.55-1.76,1.02-2.35c0.47-0.6,1.16-1.06,2.05-1.38c0.89-0.32,1.93-0.48,3.11-0.48c1.17,0,2.12,0.14,2.85,0.41
		c0.73,0.28,1.27,0.62,1.62,1.04c0.34,0.42,0.58,0.94,0.72,1.58c0.08,0.4,0.11,1.11,0.11,2.14v3.1c0,2.16,0.05,3.53,0.15,4.1
		c0.1,0.57,0.3,1.12,0.59,1.65h-2.43C544.93,176.71,544.77,176.15,544.7,175.5L544.7,175.5z M544.51,170.31
		c-0.85,0.35-2.11,0.64-3.79,0.88c-0.96,0.14-1.64,0.29-2.03,0.46c-0.4,0.17-0.7,0.42-0.92,0.76c-0.22,0.33-0.33,0.7-0.33,1.1
		c0,0.62,0.24,1.14,0.71,1.55c0.47,0.41,1.15,0.62,2.06,0.62c0.89,0,1.69-0.19,2.39-0.59c0.7-0.39,1.21-0.93,1.54-1.61
		c0.25-0.52,0.37-1.3,0.37-2.32V170.31z"/>
	<path class="st2" d="M556.88,173.1l2.3-0.36c0.13,0.92,0.49,1.63,1.08,2.12c0.59,0.49,1.41,0.74,2.47,0.74
		c1.07,0,1.86-0.22,2.38-0.65c0.52-0.44,0.78-0.95,0.78-1.53c0-0.53-0.23-0.94-0.69-1.24c-0.32-0.21-1.11-0.47-2.38-0.78
		c-1.7-0.43-2.89-0.8-3.54-1.12c-0.66-0.31-1.16-0.75-1.5-1.3c-0.34-0.56-0.51-1.17-0.51-1.84c0-0.61,0.14-1.18,0.42-1.7
		c0.28-0.52,0.66-0.96,1.14-1.3c0.36-0.26,0.85-0.49,1.48-0.68c0.63-0.19,1.3-0.28,2.01-0.28c1.07,0,2.02,0.16,2.83,0.47
		c0.82,0.31,1.41,0.73,1.8,1.26c0.39,0.53,0.65,1.24,0.8,2.12l-2.27,0.31c-0.11-0.71-0.41-1.26-0.9-1.65
		c-0.49-0.4-1.19-0.59-2.1-0.59c-1.07,0-1.83,0.18-2.28,0.53c-0.46,0.35-0.69,0.77-0.69,1.24c0,0.3,0.1,0.57,0.29,0.81
		c0.19,0.25,0.48,0.45,0.89,0.62c0.23,0.08,0.92,0.28,2.05,0.59c1.64,0.44,2.79,0.8,3.44,1.08c0.65,0.28,1.16,0.69,1.53,1.22
		c0.37,0.53,0.55,1.19,0.55,1.99c0,0.78-0.23,1.5-0.68,2.19c-0.45,0.68-1.11,1.21-1.96,1.59c-0.85,0.38-1.82,0.56-2.89,0.56
		c-1.78,0-3.14-0.37-4.08-1.11C557.73,175.65,557.14,174.55,556.88,173.1z"/>
</g>
</svg>
